<?xml version="1.0" encoding="utf-8"?><!DOCTYPE svg PUBLIC "-//W3C//DTD SVG 1.1//EN" "http://www.w3.org/Graphics/SVG/1.1/DTD/svg11.dtd"><svg id="kechengdagang" width="24" height="24" style="width:24px;height:24px;" version="1.1" xmlns="http://www.w3.org/2000/svg" viewBox="0 0 1024 1024" enable-background="new 0 0 1024 1024" xml:space="preserve"><path fill="#222222" d="M0 153.4 l0 830.98 q0 7.11 3.05 12.19 q3.05 6.1 9.14 9.14 q4.06 4.07 11.18 5.08 q6.09 0 12.19 -2.03 l323.04 -138.16 l306.8 153.4 l358.6 -153.4 l0 -830.98 q0 -7.11 -4.06 -12.19 q-2.04 -6.1 -8.13 -9.14 q-5.08 -4.07 -12.19 -5.08 q-6.1 0 -12.19 2.03 l-322.03 138.16 l-306.8 -153.4 l-358.6 153.4 ZM661.33 264.13 l259.05 -110.73 l0 647.11 l-250.92 108.7 l-307.81 -153.4 l-259.05 110.73 l0 -647.11 l251.94 -108.7 l306.79 153.4 ZM238.73 359.62 q-4.06 1.01 -4.06 -3.05 l0 -70.09 q0 -4.07 4.06 -6.1 l123.94 -53.84 l224.5 112.76 q4.07 2.03 4.07 6.1 l0 78.22 q0 5.08 -4.07 3.05 l-233.65 -116.83 l-104.63 44.7 l-7.11 3.05 l-3.05 2.03 ZM786.29 494.73 q4.06 -1.02 4.06 3.05 l0 70.09 q0 4.07 -4.06 6.1 l-123.94 52.82 l-225.52 -111.74 q-3.05 -2.03 -3.05 -6.1 l0 -78.22 q0 -5.08 4.06 -3.05 l233.65 116.83 l103.62 -44.7 l7.11 -3.05 l4.07 -2.03 ZM238.73 686.73 q-4.06 1.02 -4.06 -3.05 l0 -70.09 q0 -5.08 4.06 -6.1 l123.94 -53.84 l224.5 112.76 q4.07 2.03 4.07 6.1 l0 77.2 q0 6.1 -4.07 4.07 l-233.65 -116.83 l-104.63 44.7 l-7.11 3.05 l-3.05 2.03 Z"/></svg>